<?xml version="1.0" standalone="no"?><!DOCTYPE svg PUBLIC "-//W3C//DTD SVG 1.1//EN" "http://www.w3.org/Graphics/SVG/1.1/DTD/svg11.dtd"><svg t="1595496906818" class="icon" viewBox="0 0 1024 1024" version="1.1" xmlns="http://www.w3.org/2000/svg" p-id="2944" xmlns:xlink="http://www.w3.org/1999/xlink" width="200" height="200"><defs><style type="text/css"></style></defs><path d="M881.984 272.128V144a32 32 0 0 0-32-32H174.08a32 32 0 0 0-32 32v128.128a32 32 0 0 0-30.016 31.872v131.712a177.024 177.024 0 0 0 30.016 99.264v345.024a32 32 0 0 0 32 32H448V736h128v176h273.984a32 32 0 0 0 32-32V535.04a178.752 178.752 0 0 0 30.016-99.328V304a32 32 0 0 0-30.016-31.872z m-72 568H640V704a32 32 0 0 0-32-32h-192a32 32 0 0 0-32 32v136.128H214.016V597.888a180.224 180.224 0 0 0 79.36 18.112 180.608 180.608 0 0 0 109.12-36.224 0.64 0.64 0 0 1 0.64 0 180.224 180.224 0 0 0 109.12 36.224 180.608 180.608 0 0 0 109.056-36.224 0.64 0.64 0 0 1 0.64 0 180.224 180.224 0 0 0 109.12 36.224 180.608 180.608 0 0 0 79.36-18.112v242.24h-0.448z m0-568.128H214.016V184h595.968V272z" fill="#A6ADB4" p-id="2945"></path></svg>