<?xml version="1.0" standalone="no"?><!DOCTYPE svg PUBLIC "-//W3C//DTD SVG 1.1//EN" "http://www.w3.org/Graphics/SVG/1.1/DTD/svg11.dtd"><svg t="1595497485230" class="icon" viewBox="0 0 1024 1024" version="1.1" xmlns="http://www.w3.org/2000/svg" p-id="4606" xmlns:xlink="http://www.w3.org/1999/xlink" width="200" height="200"><defs><style type="text/css"></style></defs><path d="M511.001949 1024c-136.533333 0-264.882651-53.096296-361.294347-149.707602S0 649.531384 0 512.998051 53.096296 248.1154 149.707602 151.703704 374.468616 1.996101 511.001949 1.996101s264.882651 53.096296 361.294347 149.707603 149.707602 224.761014 149.707603 361.294347-53.096296 264.882651-149.707603 361.294347-224.761014 149.707602-361.294347 149.707602z m0-1002.841326c-131.34347 0-254.902144 51.100195-347.920468 144.118519C70.262768 258.095906 19.162573 381.654581 19.162573 512.998051s51.100195 254.902144 144.118519 347.920468c92.818713 92.818713 216.377388 144.118519 347.920467 144.118518s254.902144-51.100195 347.920468-144.118518 144.118519-216.377388 144.118519-347.920468S952.140351 258.095906 859.122027 165.077583C765.904094 72.258869 642.345419 21.158674 511.001949 21.158674z" fill="" p-id="4607"></path><path d="M214.980117 312.190253l-8.184016-36.927875c53.295906-4.990253 123.159454-13.174269 209.590644-24.552047 7.385575-1.596881 12.775049-2.395322 16.567641-2.395321l8.184016 39.323197c-9.182066 1.596881-22.955166 3.393372-41.319299 4.990253-22.156725 3.393372-37.726316 5.788694-46.908382 7.385575V393.231969h96.611306v34.332943h-96.611306v365.88538h-52.497466V427.564912H193.023002V393.231969h107.589863v-88.427291c-9.182066 0-22.955166 0.798441-41.319298 2.395322-20.360234 1.796491-35.131384 3.393372-44.31345 4.990253z m22.156725 429.760624l-41.319298-4.990253c14.77115-90.024172 22.955166-179.249903 24.751657-267.677193h35.929824c0 95.014425-6.587135 185.837037-19.362183 272.667446z m176.455361 0c-12.974659-103.198441-19.362183-194.021053-19.362184-272.467836h35.929825c1.796491 103.198441 10.180117 192.424172 24.751657 267.677193l-41.319298 4.790643z m113.178947-184.240156c-38.524756-3.193762-58.88499-22.156725-60.681481-56.489668v-115.374659c3.592982-32.736062 22.955166-50.700975 57.886939-54.094347h13.7731c-3.792593-9.780897-9.182066-24.552047-16.567642-44.11384-7.385575-17.964912-12.974659-31.937622-16.567641-41.718519h55.092398c3.592982 11.377778 10.180117 28.74386 19.362183 51.499415 5.589084 14.77115 10.180117 26.148928 13.773099 34.332944h71.859649c3.592982-8.184016 8.184016-19.561793 13.7731-34.332944 9.182066-22.955166 15.569591-40.121637 19.362183-51.499415h55.092398c-10.978558 31.139181-22.156725 59.683431-33.135283 86.031969h19.362183c42.317349 0 63.476023 17.964912 63.476024 54.094347v115.374659c-1.796491 35.929825-21.158674 54.892788-57.88694 56.489668h-27.546199v166.874074c1.796491 16.368031 13.773099 24.552047 35.929825 24.552047H830.378168l-8.184016 36.927875H722.588694c-36.728265-1.596881-56.090448-17.964912-57.88694-49.104093v-179.249903h-66.270565c0 65.472125-8.184016 112.979337-24.751657 142.322028-18.364133 32.736062-54.293957 65.472125-107.589863 98.208187l-35.929825-34.332944c45.910331-29.5423 76.251072-58.08655 91.022222-86.031968 16.567641-24.552047 24.751657-64.673684 24.751657-120.364913h-19.162573z m-8.184015-164.478752v100.603509c0 17.964912 10.180117 27.945419 30.34074 29.5423h173.660819c18.364133-1.596881 27.546199-11.377778 27.546199-29.5423V393.231969c-1.796491-16.368031-10.978558-25.350487-27.546199-26.947369h-176.455361c-16.567641 1.596881-25.749708 10.579337-27.546198 26.947369z" fill="" p-id="4608"></path></svg>